<svg xmlns="http://www.w3.org/2000/svg" viewBox="0 0 465.63 393.75"><defs><style>.cls-1{fill:#92ffd1;}</style></defs><g id="Capa_2" data-name="Capa 2"><g id="Layer_1" data-name="Layer 1"><path class="cls-1" d="M429.41,93.19c.43-21.35-4.26-42.94-8.07-64.2-1.31-7.31-4-14.38-6.58-21.32A11.89,11.89,0,0,0,401.6.26,91.49,91.49,0,0,0,392,2.72c-31.66,10.41-61,25.65-89.15,43.35-3.78,2.37-9.29,3.23-13.86,2.9-10.93-.8-21.74-3.52-32.66-4-27-1.28-54-.46-80.81,4.23-3.73.65-8.63,0-11.73-2C133.07,27.29,101.11,10.28,65.17.73,59.77-.7,54.22.06,52.85,2.2a16.24,16.24,0,0,0-2,4.13C47,20,42.37,33.55,40.11,47.49c-2.69,16.63-5.28,33.76-4,50.37.8,10.44-2.08,16.86-7.79,24.19C9.18,146.64.57,174.9,0,205.89a239.93,239.93,0,0,0,11.13,77.67c12.36,38.83,36.23,68,72.18,86.92,29.56,15.59,61.76,21.6,94.72,22.75,29.7,1,59.47.16,89.2.33s59.21-2.49,87.72-11.78,53.24-24.31,72.41-47.9c27.67-34.08,36.29-74.22,38.06-116.72,1.36-32.5-5.27-63.07-24.3-89.65C433.45,116.72,429.12,107.46,429.41,93.19ZM372,342.2c-12.78,11.05-28.41,16.28-44.41,20.11-31.39,7.5-63.36,9.37-95.43,8-31.7,1.37-63-.61-93.87-7.86-22.75-5.36-43.52-14.35-58-33.88-23-31.08-28.92-90.23,9.14-122.51,9.71-8.23,20.53-13.45,33.33-14.26,14.12-.9,28.24-2.66,42.35-2.49,35.58.42,71.15,2.19,106.74,2.45,16.25.12,32.61-3.67,48.75-2.69,14.66.89,30.07,3.59,43.37,9.48,22.18,9.84,34.12,29.78,37.73,53.14C407.09,286.39,400,318,372,342.2Z"/><ellipse class="cls-1" cx="314.04" cy="274.49" rx="33.92" ry="45.33"/><ellipse class="cls-1" cx="152.2" cy="274.49" rx="33.92" ry="45.33"/></g></g></svg>