<svg xmlns="http://www.w3.org/2000/svg" viewBox="0 0 497.04 502"><defs><style>.cls-1{fill:#92ffd1;}</style></defs><g id="Capa_2" data-name="Capa 2"><g id="Layer_1" data-name="Layer 1"><path class="cls-1" d="M115.67,368.42a6,6,0,0,0,4.24-10.25,161.27,161.27,0,0,1-23.48-29.78,6,6,0,1,0-10.24,6.26,173.38,173.38,0,0,0,25.23,32,6,6,0,0,0,4.25,1.76Z"/><path class="cls-1" d="M77.75,185.36a6,6,0,0,0-7.61,3.75h0a172.52,172.52,0,0,0-3.47,99.76,6,6,0,0,0,11.6-3.06A160.53,160.53,0,0,1,81.5,193a6,6,0,0,0-3.75-7.61Z"/><path class="cls-1" d="M28,61.72A30.07,30.07,0,0,1,46.92,80.66a6,6,0,0,0,11.39,0A30.06,30.06,0,0,1,77.23,61.72a6,6,0,0,0,0-11.39A30.06,30.06,0,0,1,58.31,31.39a6,6,0,0,0-11.39,0A30.07,30.07,0,0,1,28,50.33a6,6,0,0,0,0,11.39Zm24.62-15.4a42.52,42.52,0,0,0,9.7,9.7,42.56,42.56,0,0,0-9.7,9.71A42.37,42.37,0,0,0,42.91,56a42.12,42.12,0,0,0,9.7-9.7Z"/><path class="cls-1" d="M428.28,433.46a30.06,30.06,0,0,1-18.92-18.94,6,6,0,0,0-11.39,0A30.05,30.05,0,0,1,379,433.46a6,6,0,0,0,0,11.39A30.05,30.05,0,0,1,398,463.79a6,6,0,0,0,11.39,0,30.06,30.06,0,0,1,18.92-18.94,6,6,0,0,0,0-11.39Zm-24.62,15.4a42.32,42.32,0,0,0-9.7-9.7,42.32,42.32,0,0,0,9.7-9.7,42.52,42.52,0,0,0,9.7,9.7,42.72,42.72,0,0,0-9.7,9.7Z"/><path class="cls-1" d="M351.4,478.63a11.69,11.69,0,1,0,11.68,11.69h0A11.7,11.7,0,0,0,351.4,478.63Z"/><path class="cls-1" d="M112.83,23.37a11.69,11.69,0,1,0-11.68-11.69h0A11.69,11.69,0,0,0,112.83,23.37Z"/><path class="cls-1" d="M463.12,2.18a6,6,0,0,0,0,8.49C477.35,24.92,484.73,44.27,485,68a6.08,6.08,0,0,0,6,6h.07A6.07,6.07,0,0,0,497,67.82c-.35-26.95-8.91-49-25.43-65.58a6,6,0,0,0-8.49-.06Z"/><path class="cls-1" d="M487,104.71a6,6,0,0,0-7.26,4.38h0c-1.41,5.68-3.12,11.59-5.08,17.58a6,6,0,0,0,11.3,4c0-.1.07-.2.1-.3,2-6.26,3.84-12.46,5.32-18.42a6,6,0,0,0-4.38-7.27Z"/><path class="cls-1" d="M295.35,45.57A208.82,208.82,0,0,0,85.88,97.28C29.25,154,12.1,235.38,34.4,307.06a5.93,5.93,0,0,0-1.09,1.4c-38.91,68.89-43.83,121-14.23,150.6,12.68,12.69,29.59,19,50.22,19,23.48,0,51.79-8.21,84.15-24.59q8.76-4.44,17.79-9.6c110,34.19,226.88-27.26,261.06-137.26a208.6,208.6,0,0,0-.05-124c12.25-21.48,21.41-41.72,27.09-60C472,82,467.94,51,447.42,30.44,417.54.54,365,5.8,295.35,45.57Zm-201,60.19A196.78,196.78,0,0,1,293.48,57.57a6,6,0,0,0,1.4.44A194.08,194.08,0,0,1,324.51,70.6a6,6,0,0,0,1,.54,198.18,198.18,0,0,1,80,79.07c-10.42,20-24.37,42.1-41.47,65.19a46,46,0,0,0-51.12,61.44c-7.55,8.18-15.37,16.34-23.32,24.3-50.41,50.45-104,91.62-150.82,116a196.25,196.25,0,0,1-44.41-33.39c-76.59-76.64-76.59-201.34,0-278ZM340.73,66c38-17.57,66.54-20.54,79.12-7.95,12.92,12.93,9.38,41.81-8,79.22A210.62,210.62,0,0,0,340.73,66Zm46.94,182.5A34,34,0,1,1,356,226.67a34,34,0,0,1,31.72,21.8Zm-261.86,175c-38,17.62-66.53,20.6-79.15,8s-9.61-41.19,8-79.24A209.38,209.38,0,0,0,125.81,423.51ZM148,442.78c-23.94,12.12-53,23.35-78.69,23.35-16,0-30.58-4.35-41.77-15.55C14.64,437.64,9.75,418.9,13,394.88c2.87-21,11.82-45.51,26.6-73q3.52,8.88,7.89,17.48c-10.93,22-17.59,41.48-19.76,57.88-2.51,18.93,1,33.3,10.42,42.73,7.42,7.43,18.07,11.12,31.48,11.12,19.44,0,44.67-7.75,74.26-23.09,48-24.9,102.77-66.93,154.17-118.37,7.1-7.1,14.1-14.36,20.89-21.65a46.77,46.77,0,0,0,10.75,10.45c-6.87,7.37-13.92,14.69-21,21.82-53,53-111.54,97.68-160.66,122.54ZM424.64,289c-24.36,105.7-129.81,171.64-235.51,147.27-1.22-.28-2.44-.57-3.66-.88,42.53-26.27,88.22-63.2,131.7-106.71,8-8,16-16.3,23.65-24.63a46,46,0,0,0,58.05-59.92,45.35,45.35,0,0,0-3-6.26c10.35-14,19.67-27.7,27.89-41a197.5,197.5,0,0,1,.85,92.14Zm23.24-170c-9.74,31.39-30.3,69-59.6,109A46.67,46.67,0,0,0,376,219.34c17-23.26,31-45.67,41.53-66.34l.06-.13a265.87,265.87,0,0,0,14-32.23C443.13,87.79,442,63.2,428.33,49.53c-9.42-9.43-23.79-12.93-42.71-10.42-16.36,2.17-35.77,8.81-57.73,19.72q-8.55-4.38-17.46-7.92c26.74-14.39,50.69-23.23,71.3-26.32,24.75-3.71,44,1.11,57.2,14.33,17.12,17.13,20.13,44.1,8.95,80.15Z"/></g></g></svg>