<svg xmlns="http://www.w3.org/2000/svg" viewBox="0 0 384 480"><defs><style>.cls-1{fill:#92ffd1;}</style></defs><g id="Capa_2" data-name="Capa 2"><g id="Layer_1" data-name="Layer 1"><path class="cls-1" d="M285.66,2.34A8,8,0,0,0,280,0H56A56.07,56.07,0,0,0,0,56V424a56.07,56.07,0,0,0,56,56H328a56.06,56.06,0,0,0,56-56V104a8,8,0,0,0-2.34-5.66Zm2.34,25L356.69,96H328a40,40,0,0,1-40-40ZM56,16H272V56a56.06,56.06,0,0,0,56,56h40V336H16V56A40,40,0,0,1,56,16ZM328,464H56a40,40,0,0,1-40-40V352H368v72A40,40,0,0,1,328,464Z"/><path class="cls-1" d="M192,384h16a8,8,0,0,0,0-16H192a24,24,0,0,0,0,48,8,8,0,0,1,0,16H176a8,8,0,0,0,0,16h16a24,24,0,0,0,0-48,8,8,0,0,1,0-16Z"/><path class="cls-1" d="M256,384h16a8,8,0,0,0,0-16H256a24,24,0,0,0,0,48,8,8,0,0,1,0,16H240a8,8,0,0,0,0,16h16a24,24,0,0,0,0-48,8,8,0,0,1,0-16Z"/><path class="cls-1" d="M136,384a10.72,10.72,0,0,1,4.59,1.06,8,8,0,1,0,6.82-14.48A26.63,26.63,0,0,0,136,368c-17.65,0-32,17.94-32,40s14.35,40,32,40a26.63,26.63,0,0,0,11.41-2.58,8,8,0,1,0-6.82-14.48A10.72,10.72,0,0,1,136,432c-8.67,0-16-11-16-24S127.33,384,136,384Z"/><circle class="cls-1" cx="192" cy="184" r="8"/><circle class="cls-1" cx="192" cy="216" r="8"/><path class="cls-1" d="M88,208a8,8,0,0,1,8,8v32a24,24,0,0,0,24,24,8,8,0,0,0,0-16,8,8,0,0,1-8-8V216a23.87,23.87,0,0,0-6.13-16A23.87,23.87,0,0,0,112,184V152a8,8,0,0,1,8-8,8,8,0,0,0,0-16,24,24,0,0,0-24,24v32a8,8,0,0,1-8,8,8,8,0,0,0,0,16Z"/><path class="cls-1" d="M272,248a8,8,0,0,1-8,8,8,8,0,0,0,0,16,24,24,0,0,0,24-24V216a8,8,0,0,1,8-8,8,8,0,0,0,0-16,8,8,0,0,1-8-8V152a24,24,0,0,0-24-24,8,8,0,0,0,0,16,8,8,0,0,1,8,8v32a23.87,23.87,0,0,0,6.13,16A23.87,23.87,0,0,0,272,216Z"/></g></g></svg>