<svg xmlns="http://www.w3.org/2000/svg" viewBox="0 0 512 358.4"><defs><style>.cls-1{fill:#92ffd1;}</style></defs><g id="Capa_2" data-name="Capa 2"><g id="Capa_1-2" data-name="Capa 1"><path class="cls-1" d="M59.74,17.06H8.54A8.53,8.53,0,1,1,8.54,0h51.2a8.53,8.53,0,1,1,0,17.06Z"/><path class="cls-1" d="M59.74,358.4a8.54,8.54,0,0,1-8.54-8.54V8.54a8.54,8.54,0,1,1,17.07,0V349.87A8.54,8.54,0,0,1,59.74,358.4Z"/><path class="cls-1" d="M59.74,179.2H25.6a8.54,8.54,0,0,1-8.54-8.54V102.4a8.55,8.55,0,0,1,8.54-8.54H59.74a8.54,8.54,0,0,1,8.53,8.54v68.26a8.55,8.55,0,0,1-8.53,8.54Zm-25.6-17.06H51.2v-51.2H34.14Z"/><path class="cls-1" d="M59.74,315.74H25.6a8.55,8.55,0,0,1-8.54-8.54V238.94a8.54,8.54,0,0,1,8.54-8.54H59.74a8.53,8.53,0,0,1,8.53,8.54V307.2A8.55,8.55,0,0,1,59.74,315.74Zm-25.6-17.08H51.2v-51.2H34.14Z"/><path class="cls-1" d="M307.2,358.4H119.46a8.53,8.53,0,0,1-8.53-8.54V290.13a8.54,8.54,0,0,1,8.53-8.54H307.2a8.55,8.55,0,0,1,8.54,8.54v59.73A8.54,8.54,0,0,1,307.2,358.4ZM128,341.34H298.66V298.67H128Z"/><path class="cls-1" d="M162.14,358.4a8.54,8.54,0,0,1-8.54-8.54v-25.6a8.54,8.54,0,0,1,17.07,0v25.6A8.55,8.55,0,0,1,162.14,358.4Z"/><path class="cls-1" d="M264.54,358.4a8.54,8.54,0,0,1-8.54-8.54v-25.6a8.54,8.54,0,0,1,17.07,0v25.6A8.55,8.55,0,0,1,264.54,358.4Z"/><path class="cls-1" d="M392.54,358.4a8.54,8.54,0,0,1-8.54-8.54v-25.6a8.54,8.54,0,0,1,17.07,0v25.6A8.55,8.55,0,0,1,392.54,358.4Z"/><path class="cls-1" d="M230.4,358.4a8.54,8.54,0,0,1-8.54-8.54v-25.6a8.54,8.54,0,0,1,17.08,0v25.6A8.54,8.54,0,0,1,230.4,358.4Z"/><path class="cls-1" d="M196.26,358.4a8.53,8.53,0,0,1-8.53-8.54v-25.6a8.54,8.54,0,0,1,17.07,0v25.6A8.54,8.54,0,0,1,196.26,358.4Z"/><path class="cls-1" d="M426.66,358.4H358.4a8.54,8.54,0,0,1-8.54-8.54V290.13a8.55,8.55,0,0,1,8.54-8.54h68.26a8.54,8.54,0,0,1,8.54,8.54v59.73A8.54,8.54,0,0,1,426.66,358.4Zm-59.72-17.06h51.2V298.67h-51.2Z"/><path class="cls-1" d="M59.74,76.8H25.6a8.54,8.54,0,1,1,0-17.07H59.74a8.54,8.54,0,0,1,0,17.07Z"/><path class="cls-1" d="M59.74,213.34H25.6a8.54,8.54,0,1,1,0-17.08H59.74a8.54,8.54,0,0,1,0,17.08Z"/><path class="cls-1" d="M179.2,264.54a93.87,93.87,0,1,1,93.86-93.88A94,94,0,0,1,179.2,264.54Zm0-170.68a76.8,76.8,0,1,0,76.8,76.8A76.89,76.89,0,0,0,179.2,93.86Z"/><path class="cls-1" d="M179.2,204.8a34.14,34.14,0,1,1,34.14-34.14A34.18,34.18,0,0,1,179.2,204.8Zm0-51.2a17.07,17.07,0,1,0,17.06,17.06A17.08,17.08,0,0,0,179.2,153.6Z"/><path class="cls-1" d="M460.81,298.66H59.74a8.53,8.53,0,0,1-8.54-8.53V51.2a8.54,8.54,0,0,1,8.54-8.54H460.81A51.25,51.25,0,0,1,512,93.86V247.48a51.24,51.24,0,0,1-51.19,51.18ZM68.26,281.6H460.81a34.17,34.17,0,0,0,34.13-34.13V93.86a34.17,34.17,0,0,0-34.13-34.13H68.26Z"/><path class="cls-1" d="M179.2,153.6a8.54,8.54,0,0,1-8.54-8.54c0-18.38-23.45-34.13-42.66-34.13a8.54,8.54,0,1,1,0-17.07c27.62,0,59.74,22.36,59.74,51.2a8.54,8.54,0,0,1-8.54,8.54Z"/><path class="cls-1" d="M230.4,247.46c-27.62,0-59.74-22.36-59.74-51.2a8.54,8.54,0,0,1,17.08,0c0,18.39,23.45,34.14,42.66,34.14a8.53,8.53,0,1,1,0,17.06Z"/><path class="cls-1" d="M110.94,230.4a8.54,8.54,0,0,1-8.54-8.54c0-27.62,22.37-59.73,51.2-59.73a8.54,8.54,0,1,1,0,17.07c-18.38,0-34.14,23.46-34.14,42.66A8.53,8.53,0,0,1,110.94,230.4Z"/><path class="cls-1" d="M204.8,179.2a8.54,8.54,0,1,1,0-17.07c18.38,0,34.14-23.47,34.14-42.67a8.54,8.54,0,0,1,17.07,0c0,27.63-22.38,59.74-51.21,59.74Z"/><path class="cls-1" d="M94.73,167.14a8.54,8.54,0,0,1-6-14.57c9.49-9.5,23.77-16.22,38.19-18,16.28-2,30.58,2.25,40.25,11.93a8.53,8.53,0,0,1-12.07,12.06c-5.79-5.79-15.3-8.36-26.12-7.06s-21.29,6.2-28.17,13.09a8.59,8.59,0,0,1-6,2.51Z"/><path class="cls-1" d="M223.83,207.21c-13.07,0-24.45-4.28-32.56-12.41a8.53,8.53,0,0,1,12.07-12.06c5.79,5.79,15.31,8.37,26.12,7s21.28-6.2,28.17-13.09a8.53,8.53,0,0,1,12.07,12.07c-9.5,9.49-23.78,16.21-38.2,18a61,61,0,0,1-7.67.48Z"/><path class="cls-1" d="M167.14,263.67a8.54,8.54,0,0,1-6-2.5c-19.53-19.54-26.41-58.06-6-78.44a8.53,8.53,0,0,1,12.07,12.06c-13,13-7.56,40.73,6,54.31a8.54,8.54,0,0,1-6,14.57Z"/><path class="cls-1" d="M197.3,161.1a8.53,8.53,0,0,1-6-14.56c13-13,7.56-40.73-6-54.31A8.53,8.53,0,1,1,197.3,80.17c19.53,19.53,26.41,58.05,6,78.44a8.55,8.55,0,0,1-6,2.49Z"/><path class="cls-1" d="M384,264.54a93.87,93.87,0,1,1,93.86-93.88A94,94,0,0,1,384,264.54Zm0-170.68a76.8,76.8,0,1,0,76.8,76.8A76.89,76.89,0,0,0,384,93.86Z"/><path class="cls-1" d="M384,204.8a34.14,34.14,0,1,1,34.14-34.14A34.18,34.18,0,0,1,384,204.8Zm0-51.2a17.07,17.07,0,1,0,17.06,17.06A17.08,17.08,0,0,0,384,153.6Z"/><path class="cls-1" d="M384,153.6a8.54,8.54,0,0,1-8.54-8.54c0-18.38-23.45-34.13-42.66-34.13a8.54,8.54,0,1,1,0-17.07c27.62,0,59.74,22.36,59.74,51.2A8.54,8.54,0,0,1,384,153.6Z"/><path class="cls-1" d="M435.2,247.46c-27.62,0-59.74-22.36-59.74-51.2a8.54,8.54,0,0,1,17.08,0c0,18.39,23.45,34.14,42.66,34.14a8.53,8.53,0,1,1,0,17.06Z"/><path class="cls-1" d="M315.74,230.4a8.54,8.54,0,0,1-8.54-8.54c0-27.62,22.37-59.73,51.2-59.73a8.54,8.54,0,1,1,0,17.07c-18.38,0-34.14,23.46-34.14,42.66a8.53,8.53,0,0,1-8.52,8.54Z"/><path class="cls-1" d="M409.6,179.2a8.54,8.54,0,1,1,0-17.07c18.38,0,34.14-23.47,34.14-42.67a8.54,8.54,0,0,1,17.07,0c0,27.63-22.38,59.74-51.21,59.74Z"/><path class="cls-1" d="M299.53,167.14a8.54,8.54,0,0,1-6-14.57c9.49-9.5,23.77-16.22,38.19-18,16.28-2,30.58,2.25,40.25,11.93a8.53,8.53,0,0,1-12.07,12.06c-5.79-5.79-15.31-8.36-26.12-7.06s-21.29,6.2-28.17,13.09a8.59,8.59,0,0,1-6.05,2.51Z"/><path class="cls-1" d="M428.63,207.21c-13.07,0-24.45-4.28-32.56-12.41a8.53,8.53,0,0,1,12.07-12.06c5.79,5.79,15.3,8.37,26.12,7s21.28-6.2,28.17-13.09a8.53,8.53,0,1,1,12.07,12.07c-9.5,9.49-23.78,16.21-38.2,18a61,61,0,0,1-7.67.48Z"/><path class="cls-1" d="M371.94,263.67a8.54,8.54,0,0,1-6-2.5c-19.53-19.54-26.41-58.06-6-78.44a8.53,8.53,0,0,1,12.07,12.06c-13,13-7.56,40.73,6,54.31a8.54,8.54,0,0,1-6,14.57Z"/><path class="cls-1" d="M402.1,161.1a8.53,8.53,0,0,1-6-14.56c13-13,7.56-40.73-6-54.31A8.53,8.53,0,0,1,402.1,80.17c19.53,19.53,26.41,58.05,6,78.44a8.55,8.55,0,0,1-6,2.49Z"/></g></g></svg>