<svg xmlns="http://www.w3.org/2000/svg" viewBox="0 0 512 512"><defs><style>.cls-1{fill:#92ffd1;}</style></defs><g id="Capa_2" data-name="Capa 2"><g id="Layer_1" data-name="Layer 1"><path class="cls-1" d="M503.47,187.73H409.6v-76.8c0-.09,0-.17,0-.26s0-.22,0-.33a6.77,6.77,0,0,0-.13-1,.13.13,0,0,0,0-.06,8.11,8.11,0,0,0-.3-1.1l-.07-.19a7.05,7.05,0,0,0-.45-1v0a7.7,7.7,0,0,0-.62-1l-.12-.16a9.83,9.83,0,0,0-.79-.92L304.7,2.5a9.76,9.76,0,0,0-.84-.73l-.26-.19a8.92,8.92,0,0,0-.89-.56l-.23-.11c-.25-.12-.5-.24-.76-.34l-.36-.13a8.5,8.5,0,0,0-.9-.25L300,.12,299.35,0l-.5,0H8.53A8.53,8.53,0,0,0,0,8.53V503.47A8.53,8.53,0,0,0,8.53,512H401.07a8.52,8.52,0,0,0,8.53-8.53V409.6h93.87a8.53,8.53,0,0,0,8.53-8.53V196.27A8.54,8.54,0,0,0,503.47,187.73ZM307.2,29.13l73.27,73.27H307.2Zm85.33,465.8H17.07V17.07H290.13v93.86a8.55,8.55,0,0,0,8.54,8.54h93.86v68.26H51.2a8.54,8.54,0,0,0-8.53,8.54v204.8a8.53,8.53,0,0,0,8.53,8.53H392.53v85.33Zm102.4-102.4H59.73V204.8h435.2Z"/><path class="cls-1" d="M119.47,238.93a25.64,25.64,0,0,1,25.6,25.6,8.53,8.53,0,1,0,17.06,0,42.67,42.67,0,1,0-42.66,42.67,25.6,25.6,0,1,1-25.6,25.6,8.54,8.54,0,0,0-17.07,0,42.67,42.67,0,1,0,42.67-42.67,25.6,25.6,0,0,1,0-51.2Z"/><path class="cls-1" d="M332.8,238.93a25.64,25.64,0,0,1,25.6,25.6,8.54,8.54,0,1,0,17.07,0A42.67,42.67,0,1,0,332.8,307.2a25.6,25.6,0,1,1-25.6,25.6,8.54,8.54,0,0,0-17.07,0,42.67,42.67,0,1,0,42.67-42.67,25.6,25.6,0,0,1,0-51.2Z"/><path class="cls-1" d="M435.2,307.2a25.6,25.6,0,1,1-25.6,25.6,8.54,8.54,0,0,0-17.07,0,42.67,42.67,0,1,0,42.67-42.67,25.6,25.6,0,1,1,25.6-25.6,8.54,8.54,0,1,0,17.07,0A42.67,42.67,0,1,0,435.2,307.2Z"/><path class="cls-1" d="M229.86,227.4a8.54,8.54,0,0,0-16.14.45L171.05,364.39a8.54,8.54,0,0,0,16.3,5.09l14.12-45.21H248l17.12,45.66a8.54,8.54,0,0,0,16-6Zm-23.05,79.8,15.79-50.54,19,50.54Z"/></g></g></svg>