<svg xmlns="http://www.w3.org/2000/svg" viewBox="0 0 310.59 400.32"><defs><style>.cls-1{fill:#92ffd1;}</style></defs><g id="Capa_2" data-name="Capa 2"><g id="Layer_1" data-name="Layer 1"><path class="cls-1" d="M306.79,84.11l-9.4-9.39L231.8,9.12h0l-5.32-5.32A12.9,12.9,0,0,0,217.31,0H17C8.81,0,0,6.32,0,20.2V386.51c0,5.78,5.8,11.41,12.67,13.18.35.1.69.23,1.05.3a17.21,17.21,0,0,0,3.28.33H293.59a17.13,17.13,0,0,0,3.28-.33c.36-.07.7-.2,1.05-.3,6.87-1.77,12.67-7.4,12.67-13.18v-290C310.59,91.18,310,87.27,306.79,84.11Zm-79-59.5L286,82.82H227.77ZM17,386.51a4,4,0,0,1-1.37-.33,3.19,3.19,0,0,1-1.83-2.86V283h283V383.32a3.19,3.19,0,0,1-1.83,2.86,4,4,0,0,1-1.37.33ZM13.8,269.18V20.2c0-1.5.23-6.4,3.2-6.4H214.36a11,11,0,0,0-.4,2.7V95.11a20.54,20.54,0,0,0-13.8-5.38,6.9,6.9,0,0,0,0,13.8,6.91,6.91,0,0,1,6.9,6.9V138a27.45,27.45,0,0,0,9.54,20.71,27.41,27.41,0,0,0-9.54,20.7v27.61a6.91,6.91,0,0,1-6.9,6.9,6.91,6.91,0,0,0,0,13.81,20.73,20.73,0,0,0,20.7-20.71V179.45a13.82,13.82,0,0,1,13.81-13.8,6.91,6.91,0,0,0,0-13.81A13.82,13.82,0,0,1,220.86,138V110.43a20.54,20.54,0,0,0-5.38-13.8h78.61a10.55,10.55,0,0,0,2.7-.4v173Z"/><path class="cls-1" d="M130.13,355q-.19,4.62-3.16,6.56a14.55,14.55,0,0,1-8,1.93,20.53,20.53,0,0,1-4.25-.47c-1.51-.32-3-.68-4.34-1.08s-2.66-.85-3.82-1.32a13.46,13.46,0,0,1-2.69-1.37l-4.81,7.64a20.4,20.4,0,0,0,4.62,2.55c1.82.75,3.73,1.43,5.71,2a42.51,42.51,0,0,0,5.75,1.32,33.38,33.38,0,0,0,4.86.43,39.8,39.8,0,0,0,8.07-.81,19.23,19.23,0,0,0,6.94-2.82,14.89,14.89,0,0,0,4.81-5.38,17.4,17.4,0,0,0,1.79-8.26V301.76H130.13Z"/><path class="cls-1" d="M190.38,338.64a38,38,0,0,0-7-4q-3.78-1.65-7-3.39a21.22,21.22,0,0,1-5.38-4.06,8.55,8.55,0,0,1-2.16-6.09,7.62,7.62,0,0,1,.75-3.16,10.09,10.09,0,0,1,2.08-3,12.18,12.18,0,0,1,3-2.21,9.77,9.77,0,0,1,3.59-1.09,34.48,34.48,0,0,1,5.57-.09,14.35,14.35,0,0,1,3.49.66,9.52,9.52,0,0,1,2,.95,12.59,12.59,0,0,0,1.28.75,7.93,7.93,0,0,0,.56-.95c.31-.56.69-1.27,1.13-2.12s.92-1.76,1.42-2.74.95-1.87,1.32-2.69a19.41,19.41,0,0,0-7.17-2.59,48.85,48.85,0,0,0-8.78-.8,24.46,24.46,0,0,0-8.06,1.31,20.39,20.39,0,0,0-6.71,3.83,18.16,18.16,0,0,0-4.57,6.09,19,19,0,0,0-1.71,8.21,15.47,15.47,0,0,0,2.16,8.49,22.7,22.7,0,0,0,5.48,5.89,41.35,41.35,0,0,0,7.07,4.34c2.51,1.23,4.86,2.45,7,3.68a23.36,23.36,0,0,1,5.43,4.11,7.64,7.64,0,0,1,2.17,5.47q0,5.3-3.07,8c-2,1.79-5,2.7-8.82,2.7a24,24,0,0,1-4.06-.38,39.41,39.41,0,0,1-4.34-1c-1.45-.41-2.84-.85-4.19-1.32a18.33,18.33,0,0,1-3.35-1.46l-2,8.12a15.1,15.1,0,0,0,3.82,2.41,25.61,25.61,0,0,0,4.67,1.56,36.45,36.45,0,0,0,4.86.8c1.6.15,3.16.23,4.68.23a26,26,0,0,0,9.43-1.6,21.26,21.26,0,0,0,7-4.29,19.19,19.19,0,0,0,4.38-6.23,17.73,17.73,0,0,0,1.56-7.31,17.26,17.26,0,0,0-2.16-9.11A20.64,20.64,0,0,0,190.38,338.64Z"/><path class="cls-1" d="M96.63,138V110.43a6.91,6.91,0,0,1,6.9-6.9,6.9,6.9,0,1,0,0-13.8,20.73,20.73,0,0,0-20.71,20.7V138A13.81,13.81,0,0,1,69,151.84a6.91,6.91,0,0,0,0,13.81,13.81,13.81,0,0,1,13.8,13.8v27.61a20.73,20.73,0,0,0,20.71,20.71,6.91,6.91,0,0,0,0-13.81,6.91,6.91,0,0,1-6.9-6.9V179.45a27.41,27.41,0,0,0-9.54-20.7A27.45,27.45,0,0,0,96.63,138Z"/><circle class="cls-1" cx="151.84" cy="134.59" r="10.35"/><path class="cls-1" d="M151.84,172.55a6.9,6.9,0,0,0-6.9,6.9v20.71a6.91,6.91,0,0,0,13.81,0V179.45A6.9,6.9,0,0,0,151.84,172.55Z"/></g></g></svg>