<svg xmlns="http://www.w3.org/2000/svg" viewBox="0 0 480.24 336.03"><defs><style>.cls-1{fill:#92ffd1;}</style></defs><g id="Capa_2" data-name="Capa 2"><g id="Capa_1-2" data-name="Capa 1"><path class="cls-1" d="M479.89,223.58a104.36,104.36,0,0,0-128-92.75,104.69,104.69,0,0,0-80.67-96.18c-.72-.18-1.46-.32-2.19-.47A71.79,71.79,0,0,0,138.42,53.7,64.06,64.06,0,0,0,48,112a65.35,65.35,0,0,0,.56,8.5,55.88,55.88,0,0,0-30.76,96.3c-1,1.11-2,2.21-2.85,3.38A71.16,71.16,0,0,0,0,264a72.08,72.08,0,0,0,72,72H376c3,0,5.85-.09,8.66-.34A104,104,0,0,0,479.89,223.58ZM26.13,149.5A40,40,0,0,1,56,136h1.43a7.9,7.9,0,0,0,7-2.83A8,8,0,0,0,66,125.8,48.6,48.6,0,0,1,64,112a48.05,48.05,0,0,1,48-48,47.08,47.08,0,0,1,27.65,8.8A8,8,0,0,0,152.31,67a56.29,56.29,0,0,1,59.08-50.95,55.44,55.44,0,0,1,35.83,16c-.5,0-1,.08-1.49.09h-.32a106.11,106.11,0,0,0-11.12.88l-.43.07a102.8,102.8,0,0,0-10.72,2l-.59.15a101.82,101.82,0,0,0-10.08,3.08l-.93.33q-4.68,1.76-9.16,3.95l-1.38.66c-2.77,1.41-5.46,2.95-8.1,4.61-.6.37-1.21.71-1.8,1.09-2.48,1.6-4.88,3.39-7.2,5.24-.63.49-1.28.93-1.91,1.45a105.32,105.32,0,0,0-8.27,7.53A98.15,98.15,0,0,0,157,85.75v0l-.07.09a9.46,9.46,0,0,0-.63,1.17,100.19,100.19,0,0,0-8.11,19.75,104.12,104.12,0,0,0-3.55,18.16A90.56,90.56,0,0,0,144,136v1.6a80.87,80.87,0,0,0-50.55,6.25,86.42,86.42,0,0,0-10,5.74,45.53,45.53,0,0,0-5.41,4.07,77.58,77.58,0,0,0-8.47,7.74,73.15,73.15,0,0,0-7.1,8.71,79.47,79.47,0,0,0-11.74,25.09,64.36,64.36,0,0,0-10.21,4.09,74.1,74.1,0,0,0-10,6c-.34.23-.74.4-1.06.64A40,40,0,0,1,26.13,149.5ZM383.29,319.75c-2.4.22-4.8.28-7.27.28H72a56.06,56.06,0,0,1-56-56,55.46,55.46,0,0,1,11.67-34.14,51.55,51.55,0,0,1,7.33-7.8,57,57,0,0,1,12.72-8.46,52.27,52.27,0,0,1,11.6-4.15,8,8,0,0,0,6-6.18,63.74,63.74,0,0,1,10.29-23.94,58,58,0,0,1,5.6-6.9,64.76,64.76,0,0,1,7.2-6.55,35.27,35.27,0,0,1,4-3,68.41,68.41,0,0,1,8-4.63,65.91,65.91,0,0,1,6.22-2.54c1.53-.55,3.1-1,4.68-1.4.53-.15,1-.32,1.6-.45,1.68-.41,3.37-.71,5.07-1,.48-.07,1-.17,1.44-.24,1.53-.2,3.06-.32,4.6-.42.8-.05,1.54-.11,2.31-.13,1.51-.05,3,0,4.48,0a12.16,12.16,0,0,1,1.6.07c1.5.1,3,.27,4.43.47.56.07,1.12.13,1.66.21,1.5.25,3,.59,4.46.95.47.11.94.19,1.4.31a54.6,54.6,0,0,1,5.6,1.82,8,8,0,0,0,10.35-4.59,8.09,8.09,0,0,0,.46-4A83.07,83.07,0,0,1,160,136a77.78,77.78,0,0,1,.52-9.28,90.15,90.15,0,0,1,3-15.52,84.09,84.09,0,0,1,7.08-17.08,1.82,1.82,0,0,0,.16-.31c.05-.1.2-.33.28-.51a82.47,82.47,0,0,1,14-18.9A87.49,87.49,0,0,1,248,48c2.67,0,5.32.16,7.89.36,2.3.23,4.53.51,6.75.94l.45.07a45.76,45.76,0,0,1,4.51.8A88.55,88.55,0,0,1,336,136c0,1.73-.08,3.46-.15,5.18a8,8,0,0,0,7.65,8.34,8.17,8.17,0,0,0,3.06-.47A86.87,86.87,0,0,1,376,144a88,88,0,0,1,7.27,175.72Z"/></g></g></svg>