<svg xmlns="http://www.w3.org/2000/svg" viewBox="0 0 408.88 357.51"><defs><style>.cls-1{fill:#92ffd1;}</style></defs><g id="Capa_2" data-name="Capa 2"><g id="Layer_1" data-name="Layer 1"><path class="cls-1" d="M204.44,142.87a35.78,35.78,0,1,0,35.77,35.77A35.82,35.82,0,0,0,204.44,142.87Z"/><path class="cls-1" d="M408.87,183.07c.28-12.39-5.05-24.3-15.83-35.42v0a19.18,19.18,0,0,0-19.16-19.16,18.51,18.51,0,0,0-5.28.75,190.14,190.14,0,0,0-21.54-10.58c-5.13-2.14-11-4.28-17.68-6.5,14.38-52.08,9.12-90.45-14.64-105.68-24.9-16-66.1-1.89-110.3,38.23C160.25,4.59,119.09-9.56,94.13,6.46,79,16.15,71.23,35.31,71.52,62a19.06,19.06,0,0,0,3.69,32.6c.82,4,1.85,8.39,3.12,13.19C29.06,122.72.61,146.77,0,174.22c-.54,24.66,21.41,47.55,61.8,64.42,5.16,2.17,11,4.31,17.79,6.54C77.69,252,76.22,258,75.12,263.6c-8.52,42.94-1.76,73.92,19,87.24,25,16,66.15,1.85,110.31-38.24,31.93,29,62.41,44.89,86.17,44.91a44,44,0,0,0,24.14-6.67c20.78-13.32,27.53-44.3,19-87.24-.84-4.21-1.92-8.86-3.29-14.06C379.79,234.61,408.28,210.54,408.87,183.07ZM104.53,334.57C91.3,326.1,87.38,301,94,267.35c1-4.92,2.3-10.38,4-16.57a406.54,406.54,0,0,0,59.81,11,428,428,0,0,0,32.59,37.42C154.84,331.24,121.3,345.3,104.53,334.57Zm0-311.86c16.72-10.66,50.31,3.34,85.94,35.42A425.82,425.82,0,0,0,159.3,93.7a404.1,404.1,0,0,0-62.12,9.07c-.88-3.45-1.69-6.89-2.43-10.42A19.12,19.12,0,0,0,91,59.72C91,46.05,93.56,29.74,104.53,22.71Zm-.82,209.62c3.67-10.62,8-21.49,13.05-32.44,4.82,8.57,9.9,17,15.15,25.22,3.18,5,6.51,10,10.06,15A371.18,371.18,0,0,1,103.71,232.33Zm28.21-100.15c-5.28,8.25-10.34,16.66-15.09,25.1a372.73,372.73,0,0,1-14-35.77,370.07,370.07,0,0,1,40.94-6.91C139.64,120.41,135.69,126.29,131.92,132.18Zm-4.61,46.4c6.51-12.44,13.52-24.53,20.86-36,6.35-9.91,13.45-20,21.1-30.16,12.09-.68,24.27-.88,36.62-.6,11.64.25,23.34.91,34.77,2,7.25,9.67,14,19.32,20,28.76,7.33,11.46,14.35,23.56,20.85,36C275,191.21,268,203.35,260.71,214.7c-6.38,10-13.47,20.08-21.1,30.15-12.08.66-24.24.86-36.62.59-11.62-.24-23.3-.91-34.77-2-7.27-9.67-14-19.34-20.05-28.75C140.92,203.37,133.91,191.23,127.31,178.58Zm137.84,64.11c4.09-5.84,8.05-11.72,11.8-17.58,5.27-8.22,10.35-16.67,15.16-25.24a364.24,364.24,0,0,1,14.17,35.86A368.76,368.76,0,0,1,265.15,242.69ZM277,132.18c-3.21-5-6.54-10-10.06-15.06A371.44,371.44,0,0,1,305,124.93c-3.67,10.59-8,21.43-13,32.35C287.31,148.87,282.26,140.47,277,132.18Zm33.7-25.71A407.55,407.55,0,0,0,251,95.54a426.24,426.24,0,0,0-32.6-37.4c35.64-32.09,69.25-46.08,86-35.42C320.08,32.8,322.37,63.93,310.65,106.47ZM206.31,92.53c-3.72-.08-7.43-.12-11.11-.12-3.33,0-6.65,0-9.94.1,6.3-7.38,12.72-14.38,19.19-20.93,6.74,6.83,13.39,14.09,19.86,21.72C218,92.91,212,92.66,206.31,92.53Zm-122.55,34a399.08,399.08,0,0,0,21.82,52.14,402.09,402.09,0,0,0-20.33,48c-6.1-2-11.35-4-16-5.9C37.62,207.62,19,190.36,19.3,174.63,19.69,156.51,43.68,138.69,83.76,126.55Zm118.82,138.2c7.09.15,14.12.16,21,0-6.3,7.38-12.71,14.39-19.18,21-6.72-6.81-13.37-14.07-19.87-21.74C191,264.38,196.89,264.62,202.58,264.75Zm47-1.15a402.25,402.25,0,0,0,62.26-9.11c1.25,4.76,2.24,9,3,12.87,6.67,33.6,2.75,58.73-10.48,67.21-16.75,10.73-50.32-3.35-86-35.4A424.6,424.6,0,0,0,249.57,263.6ZM325,230.78a394.59,394.59,0,0,0-21.67-52.11,399.3,399.3,0,0,0,20.39-48.09c6.13,2,11.29,3.93,15.95,5.88,5.49,2.3,10.68,4.77,15.51,7.37a17.94,17.94,0,0,0-.4,3.79,19.18,19.18,0,0,0,19.15,19.15,18.84,18.84,0,0,0,8.49-2c4.92,6.09,7.34,12.09,7.21,17.9C389.2,200.79,365.15,218.62,325,230.78Z"/></g></g></svg>