<svg xmlns="http://www.w3.org/2000/svg" viewBox="0 0 480 200"><defs><style>.cls-1{fill:#92ffd1;}</style></defs><g id="Capa_2" data-name="Capa 2"><g id="Capa_1-2" data-name="Capa 1"><path class="cls-1" d="M472,48a8,8,0,0,0,8-8V8a8,8,0,0,0-8-8H8A8,8,0,0,0,0,8V40a8,8,0,0,0,8,8A8,8,0,0,1,8,64a8,8,0,0,0-8,8v96a8,8,0,0,0,8,8h8v16a8,8,0,0,0,8,8H168a8,8,0,0,0,8-8V176h16v16a8,8,0,0,0,8,8H456a8,8,0,0,0,8-8V176h8a8,8,0,0,0,8-8V72a8,8,0,0,0-8-8,8,8,0,0,1,0-16ZM160,184H32v-8H160Zm288,0H208v-8H448ZM464,33.37a24,24,0,0,0,0,45.26V160H16V78.63c.27-.09.51-.24.8-.34.45-.18.87-.38,1.3-.59a23,23,0,0,0,2.58-1.4c.39-.24.8-.48,1.16-.74a24.57,24.57,0,0,0,2.68-2.21c.18-.17.38-.31.54-.48a24.75,24.75,0,0,0,2.67-3.2c.21-.32.4-.67.61-1A22.84,22.84,0,0,0,29.81,66c.2-.44.37-.88.55-1.34a23.47,23.47,0,0,0,.9-2.88c.11-.44.24-.86.32-1.31a22.1,22.1,0,0,0,0-8.8c-.08-.45-.21-.87-.32-1.31a24,24,0,0,0-.9-2.88c-.18-.46-.35-.9-.55-1.34a27.22,27.22,0,0,0-1.47-2.71c-.21-.33-.4-.68-.61-1a24.75,24.75,0,0,0-2.67-3.2c-.16-.17-.36-.31-.54-.48a25.78,25.78,0,0,0-2.68-2.21c-.38-.27-.8-.5-1.16-.74a23,23,0,0,0-2.58-1.4c-.43-.2-.85-.41-1.3-.58-.26-.11-.5-.25-.8-.35V16H464Z"/><path class="cls-1" d="M264,32H216a8,8,0,0,0-8,8v80a8,8,0,0,0,8,8h48a8,8,0,0,0,8-8V40A8,8,0,0,0,264,32Zm-8,80H224V48h32Z"/><path class="cls-1" d="M344,32H296a8,8,0,0,0-8,8v80a8,8,0,0,0,8,8h48a8,8,0,0,0,8-8V40A8,8,0,0,0,344,32Zm-8,80H304V48h32Z"/><path class="cls-1" d="M104,32H56a8,8,0,0,0-8,8v80a8,8,0,0,0,8,8h48a8,8,0,0,0,8-8V40A8,8,0,0,0,104,32Zm-8,80H64V48H96Z"/><path class="cls-1" d="M184,32H136a8,8,0,0,0-8,8v80a8,8,0,0,0,8,8h48a8,8,0,0,0,8-8V40A8,8,0,0,0,184,32Zm-8,80H144V48h32Z"/><path class="cls-1" d="M424,32H376a8,8,0,0,0-8,8v80a8,8,0,0,0,8,8h48a8,8,0,0,0,8-8V40A8,8,0,0,0,424,32Zm-8,80H384V48h32Z"/></g></g></svg>