<svg xmlns="http://www.w3.org/2000/svg" viewBox="0 0 370.4 477.4"><defs><style>.cls-1{fill:#92ffd1;}</style></defs><g id="Capa_2" data-name="Capa 2"><g id="Layer_1" data-name="Layer 1"><path class="cls-1" d="M365.86,100.31l-11.2-11.2L276.43,10.87h0l-6.34-6.34A15.4,15.4,0,0,0,259.15,0H20.27C10.5,0,0,7.54,0,24.08V460.94c0,6.89,6.92,13.6,15.11,15.71.42.12.83.27,1.25.35a19.8,19.8,0,0,0,3.91.4H350.12A19.65,19.65,0,0,0,354,477c.43-.08.83-.23,1.25-.35,8.19-2.11,15.12-8.82,15.12-15.71V115.05C370.4,108.74,369.63,104.07,365.86,100.31Zm-94.24-71,69.43,69.43H271.62ZM20.27,460.94a4.55,4.55,0,0,1-1.63-.41,3.78,3.78,0,0,1-2.18-3.4V337.47H353.93V457.13a3.76,3.76,0,0,1-2.18,3.4,4.5,4.5,0,0,1-1.63.41ZM16.46,321V24.08c0-1.78.27-7.62,3.81-7.62H255.64a12.79,12.79,0,0,0-.48,3.22v95.55h95.55a12.78,12.78,0,0,0,3.22-.47V321Z"/><polygon class="cls-1" points="84.89 397.89 49 397.89 49 361.54 35.27 361.54 35.27 444.48 49 444.48 49 407.12 84.89 407.12 84.89 444.48 98.4 444.48 98.4 361.54 84.89 361.54 84.89 397.89"/><polygon class="cls-1" points="114.72 370.77 139.47 370.77 139.47 444.48 153.1 444.48 153.1 370.77 177.85 370.77 177.85 361.54 114.72 361.54 114.72 370.77"/><polygon class="cls-1" points="232.32 418.25 207.67 361.54 193.95 361.54 193.95 444.48 207.67 444.48 207.67 387.42 226.35 433.56 238.28 433.56 256.85 387.42 256.85 444.48 270.58 444.48 270.58 361.54 256.85 361.54 232.32 418.25"/><polygon class="cls-1" points="305.12 361.54 291.39 361.54 291.39 444.48 343.27 444.48 343.27 434.24 305.12 434.24 305.12 361.54"/><path class="cls-1" d="M145.75,142.34a8.22,8.22,0,0,0-11.64,0L84.72,191.73a8.21,8.21,0,0,0,0,11.63l49.39,49.39a8.23,8.23,0,0,0,11.64-11.64l-43.57-43.57L145.75,154A8.22,8.22,0,0,0,145.75,142.34Z"/><path class="cls-1" d="M244.52,142.34A8.23,8.23,0,1,0,232.88,154l43.57,43.56-43.57,43.57a8.23,8.23,0,0,0,11.64,11.64l49.39-49.39a8.23,8.23,0,0,0,0-11.63Z"/></g></g></svg>