<svg xmlns="http://www.w3.org/2000/svg" viewBox="0 0 472 470.79"><defs><style>.cls-1{fill:#92ffd1;}</style></defs><g id="Capa_2" data-name="Capa 2"><g id="Layer_1" data-name="Layer 1"><path class="cls-1" d="M466,150.39a6,6,0,0,0,0-12H424v-29a62,62,0,0,0-62-62H333V6a6,6,0,0,0-12,0V47.39H272V6a6,6,0,0,0-12,0V47.39H211V6a6,6,0,0,0-12,0V47.39H150V6a6,6,0,0,0-12,0V47.39H109a62,62,0,0,0-62,62v29H6a6,6,0,0,0,0,12H47v49H6a6,6,0,0,0,0,12H47v48H6a6,6,0,0,0,0,12H47v49H6a6,6,0,0,0,0,12H47v30a62,62,0,0,0,62,62h29v40.4a6,6,0,0,0,12,0h0v-40.4h49v40.4a6,6,0,0,0,12,0h0v-40.4h49v40.4a6,6,0,0,0,12,0h0v-40.4h49v40.4a6,6,0,0,0,12,0h0v-40.4h29a62,62,0,0,0,62-62v-30h42a6,6,0,0,0,0-12H424v-49h42a6,6,0,0,0,0-12H424v-48h42a6,6,0,0,0,0-12H424v-49Zm-54,212a50,50,0,0,1-50,50H109a50,50,0,0,1-50-50v-253a50,50,0,0,1,50-50H362a50,50,0,0,1,50,50Z"/><path class="cls-1" d="M335.93,89.39H124.85A35.67,35.67,0,0,0,89,124.87V346.18a36.09,36.09,0,0,0,35.85,36.21H345.93A36.27,36.27,0,0,0,382,346.18V135.1a45.86,45.86,0,0,0-46-45.71ZM370,346.18a24.27,24.27,0,0,1-24.07,24.21H124.85A24.08,24.08,0,0,1,101,346.18V125.1a23.65,23.65,0,0,1,23.6-23.71H335.93A33.84,33.84,0,0,1,370,135V346.18Z"/><path class="cls-1" d="M312,133.39H159a26,26,0,0,0-26,26v153a26,26,0,0,0,26,26H312a26,26,0,0,0,26-26h0v-153A26,26,0,0,0,312,133.39Zm14,179a14,14,0,0,1-14,14H159a14,14,0,0,1-14-14v-153a14,14,0,0,1,14-14H312a14,14,0,0,1,14,14h0Z"/><path class="cls-1" d="M168.25,190.08l17.83-17.83a6,6,0,1,0-8.49-8.48l-17.82,17.82a6,6,0,0,0,8.48,8.49Z"/><path class="cls-1" d="M201.8,168.15,164.15,205.8a6,6,0,1,0,8.49,8.49l37.65-37.65a6,6,0,1,0-8.49-8.49Z"/><path class="cls-1" d="M74,126.5a6,6,0,0,0-6,6v75.81a6,6,0,0,0,12,0V132.5A6,6,0,0,0,74,126.5Z"/><path class="cls-1" d="M74,101.28a6,6,0,0,0-6,6v4.84a6,6,0,0,0,12,0v-4.84A6,6,0,0,0,74,101.28Z"/></g></g></svg>